<?xml version="1.0" encoding="UTF-8"?>
<svg id="Layer_1" xmlns="http://www.w3.org/2000/svg" version="1.1" viewBox="0 0 77.53 17.64">
  <!-- Generator: Adobe Illustrator 29.6.1, SVG Export Plug-In . SVG Version: 2.1.1 Build 9)  -->
  <defs>
    <style>
      .st0 {
        fill: #1d51a3;
      }

      .st1 {
        fill: #fff;
      }
    </style>
  </defs>
  <polygon class="st0" points="72.9 16.53 58.71 16.53 58.71 2.27 72.9 2.27 72.9 16.53 72.9 16.53"/>
  <path class="st1" d="M72,8.52s-1.86-2.66-5.36-2.56c.03.13.04.26.01.4-.1.5-.62.81-1.15.7-.4-.08-.69-.38-.78-.73-.55.2-.91.4-.91.4,1.21-.84,2.75-1.32,4.58-1.07,1.64.18,3.07,1.18,3.6,1.72v1.15h0ZM71.9,15.41h-3.15c.57-.58,1-1.29,1.17-2.12.8-3.73-2.38-5.19-3.1-5.39,3.52.75,5.67,4.25,5.07,7.51h0ZM65.82,12.05c-.19,1.41-1.99,3.01-3.96,3.3-.46.07-.65.05-1.48.05h-1.37V2.52h12.99v4.16s-2.05-2.92-5.86-2.56c-.84.07-1.58.35-2.02.55-.85.4-1.44.92-1.68,1.21,0,0-.01.02-.02.03-.92.59-1.18,1.17-1.18,1.17-.56,1.23.32,2.14.32,2.14-.15-.56.22-.85.23-.86.66.18,1.51.17,1.57.17.04.01.07.02.1.03,1.75.36,2.66,1.83,2.37,3.5h0ZM57.4.94v16.04h16.2V.94h-16.2Z"/>
  <path class="st0" d="M20.18,8.68c0,.37-.09.64-.26.83-.17.19-.43.28-.78.28-.21,0-.45-.04-.73-.12l.14-.75c.14.03.25.05.31.05.22,0,.33-.1.33-.31v-3.15h.99v1.98h.67v.89h-.67v.3h0Z"/>
  <polygon class="st0" points="20.67 8.38 20.67 7.49 23.07 7.49 23.07 8.38 20.67 8.38 20.67 8.38"/>
  <path class="st0" d="M24.33,4.25h.82v.76h-.82v-.76h0ZM25.15,6.74c0-.17-.03-.3-.1-.38-.07-.08-.18-.11-.34-.11-.14,0-.25.05-.33.15-.08.1-.12.24-.12.42,0,.23.06.4.17.51.11.11.29.16.53.16h.19v-.75h0ZM22.89,7.49h.72c-.21-.21-.32-.49-.32-.82,0-.23.06-.44.18-.63.12-.19.28-.34.5-.46.22-.11.47-.17.76-.17.45,0,.8.12,1.03.36.24.24.36.6.36,1.06v.65h.69v.89h-3.91v-.89h0Z"/>
  <path class="st0" d="M26.63,7.49h2.02v-.6c0-.23-.03-.38-.09-.48-.06-.09-.16-.14-.31-.14-.13,0-.22.03-.29.09-.06.06-.11.17-.14.33l-.96-.1c.07-.39.21-.68.43-.86.22-.18.53-.27.94-.27.47,0,.83.12,1.06.35.23.24.34.6.34,1.09v.59h.69v.89h-3.7v-.89h0Z"/>
  <polygon class="st0" points="30.15 7.49 30.87 7.49 30.87 4.21 31.85 4.21 31.85 7.49 32.56 7.49 32.56 8.38 30.15 8.38 30.15 7.49 30.15 7.49"/>
  <polygon class="st0" points="32.39 7.49 33.1 7.49 33.1 4.21 34.08 4.21 34.08 8.38 32.39 8.38 32.39 7.49 32.39 7.49"/>
  <polygon class="st0" points="44.25 8.38 44.25 7.5 46.64 7.5 46.64 8.38 44.25 8.38 44.25 8.38"/>
  <polygon class="st0" points="47.18 4.23 48.16 4.23 48.16 5.13 47.18 5.13 47.18 4.23 47.18 4.23"/>
  <path class="st0" d="M37.91,5.94h.12v-.26c0-.14.04-.25.12-.33.08-.08.19-.12.34-.12.14,0,.25.03.32.1.08.07.12.17.15.32l-.3.04c-.02-.11-.07-.17-.15-.17-.11,0-.16.06-.16.19v.22h.61v.31h-1.05v-.31h0ZM36.42,8.02c-.27-.24-.41-.61-.41-1.12,0-.27.06-.51.18-.72.12-.21.29-.38.52-.5.23-.12.51-.2.83-.22l.12.85c-.24.03-.41.09-.51.18-.1.09-.15.23-.15.42,0,.39.22.58.65.58h1.67v-3.27h.98v4.15h-2.59c-.59,0-1.01-.12-1.29-.35h0Z"/>
  <path class="st0" d="M48.16,5.42v2.96s-1.69,0-1.69,0v-.88h.71s0-2.08,0-2.08c0,0,.97.01.98,0h0Z"/>
  <path class="st0" d="M48.66,7.5h1.79s0-.35,0-.35c0-.55-.24-.82-.71-.82-.2,0-.42.05-.67.15l-.25-.81c.15-.06.31-.11.49-.15.18-.03.36-.05.54-.05.31,0,.58.06.82.19.24.12.43.3.56.54.14.23.2.51.2.82v1.37h-2.77v-.88h0Z"/>
  <path class="st0" d="M52.04,4.23h.98v4.15h-.98v-4.15h0ZM52.01,3.6h.12v-.26c0-.14.04-.25.12-.33.08-.08.19-.12.34-.12.14,0,.25.03.32.1.08.07.12.17.15.32l-.3.04c-.02-.11-.07-.17-.15-.17-.11,0-.16.06-.16.19v.22h.61v.31h-1.05v-.31h0Z"/>
  <path class="st0" d="M42.77,7.5h-.19c-.24,0-.42-.05-.53-.16-.11-.11-.17-.28-.17-.51,0-.18.04-.32.12-.42.08-.1.19-.15.33-.15.15,0,.27.04.33.11.07.08.1.2.1.38v.74h0ZM43.73,7.5v-.64c0-.47-.12-.82-.36-1.06-.24-.24-.58-.37-1.03-.37-.29,0-.54.06-.76.18-.22.12-.38.29-.49.5-.11.21-.17.46-.17.74,0,1.01.62,1.52,1.85,1.53,0,.23-.04.39-.11.49,0,.01-.02.02-.03.03l.48.76c.1-.05.19-.11.27-.19.24-.24.36-.6.36-1.09h.69s0-.88,0-.88h-.69Z"/>
  <path class="st0" d="M6.83,12l-.41,1.37h.82l-.41-1.37h0ZM7.72,14.98l-.23-.76h-1.34l-.22.76h-1.07l1.38-3.97h1.21l1.38,3.97h-1.11Z"/>
  <path class="st0" d="M10.79,14.08c.63,0,.94-.36.94-1.09,0-.36-.07-.63-.22-.81-.15-.18-.37-.26-.67-.26h-.51v2.17h.45ZM9.27,14.98v-3.97h1.56c.66,0,1.15.16,1.49.49.34.33.51.81.51,1.44s-.18,1.15-.54,1.5c-.36.35-.87.52-1.53.52h-1.5Z"/>
  <polygon class="st0" points="15.89 14.98 14.47 12.71 14.47 14.98 13.46 14.98 13.46 11.02 14.39 11.02 15.82 13.29 15.82 11.02 16.83 11.02 16.83 14.98 15.89 14.98 15.89 14.98"/>
  <path class="st0" d="M19.39,14.06c.28,0,.49-.1.64-.29.14-.2.21-.49.21-.87,0-.78-.28-1.17-.84-1.17-.28,0-.49.1-.64.29-.14.2-.21.49-.21.87s.07.68.21.87.35.29.63.29h0ZM19.38,14.98c-.41,0-.76-.08-1.05-.25-.29-.17-.51-.4-.66-.71-.15-.31-.23-.68-.23-1.1,0-.66.17-1.17.52-1.54.35-.37.83-.56,1.44-.56.41,0,.76.08,1.05.25.29.17.51.4.66.71.15.31.23.68.23,1.1,0,.66-.17,1.17-.52,1.54-.35.37-.83.56-1.44.56h0Z"/>
  <path class="st0" d="M25.5,13.43c-.03.49-.2.86-.51,1.14-.31.27-.73.41-1.25.41-.6,0-1.07-.18-1.4-.54-.33-.36-.5-.87-.5-1.52s.17-1.17.51-1.55c.34-.37.81-.56,1.41-.56.47,0,.85.12,1.13.35.28.24.46.58.54,1.05l-1.06.12c-.04-.21-.12-.37-.22-.46-.1-.09-.24-.14-.42-.14-.51,0-.76.39-.76,1.16s.26,1.17.77,1.17c.19,0,.34-.05.46-.16.11-.11.18-.26.21-.47h1.09Z"/>
  <path class="st0" d="M28.72,14.08c.63,0,.94-.36.94-1.09,0-.36-.07-.63-.22-.81-.15-.18-.37-.26-.67-.26h-.51v2.17h.45ZM27.2,14.98v-3.97h1.56c.66,0,1.15.16,1.49.49.34.33.51.81.51,1.44s-.18,1.15-.54,1.5c-.36.35-.87.52-1.53.52h-1.5Z"/>
  <path class="st0" d="M32.92,12.79c.2,0,.35-.04.44-.12.09-.08.14-.2.14-.37s-.05-.28-.15-.35c-.1-.08-.26-.11-.46-.11h-.49v.95h.52ZM33.63,14.98l-.65-1.37h-.58v1.37h-1.02v-3.97h1.57c.52,0,.91.11,1.18.32.27.21.4.52.4.94,0,.26-.05.48-.15.67-.1.19-.25.34-.44.46l.81,1.58h-1.13Z"/>
  <polygon class="st0" points="35.16 14.98 35.16 11.02 36.23 11.02 36.23 14.98 35.16 14.98 35.16 14.98"/>
  <polygon class="st0" points="36.96 14.98 36.96 11.02 38.03 11.02 38.03 14.08 39.78 14.08 39.69 14.98 36.96 14.98 36.96 14.98"/>
  <polygon class="st0" points="40.27 14.98 40.27 11.02 41.34 11.02 41.34 14.08 43.09 14.08 43 14.98 40.27 14.98 40.27 14.98"/>
  <polygon class="st0" points="43.58 14.98 43.58 11.02 44.65 11.02 44.65 14.98 43.58 14.98 43.58 14.98"/>
  <polygon class="st0" points="47.82 14.98 46.39 12.71 46.39 14.98 45.38 14.98 45.38 11.02 46.31 11.02 47.74 13.29 47.74 11.02 48.75 11.02 48.75 14.98 47.82 14.98 47.82 14.98"/>
  <path class="st0" d="M52.03,13.48h-.63v-.86h1.62v1.8c-.23.18-.49.32-.78.42-.29.1-.6.14-.92.14-.62,0-1.1-.18-1.44-.54-.34-.36-.51-.87-.51-1.52,0-.44.08-.82.23-1.14.16-.32.38-.56.67-.72.29-.16.63-.24,1.03-.24.47,0,.85.11,1.14.34.29.23.47.54.54.95l-1.07.11c-.04-.17-.11-.3-.21-.37-.1-.08-.23-.12-.41-.12-.27,0-.48.1-.61.29-.13.19-.2.49-.2.89s.07.72.22.91c.15.19.38.28.71.28.23,0,.44-.05.62-.14v-.46h0Z"/>
</svg>