<?xml version="1.0" encoding="UTF-8"?>
<svg id="Layer_1" xmlns="http://www.w3.org/2000/svg" xmlns:xlink="http://www.w3.org/1999/xlink" version="1.1" viewBox="0 0 110 30">
  <!-- Generator: Adobe Illustrator 30.4.0, SVG Export Plug-In . SVG Version: 2.1.4 Build 226)  -->
  <defs>
    <style>
      .st0 {
        fill: none;
      }

      .st1 {
        mask: url(#mask);
      }

      .st2 {
        mask: url(#mask-2);
      }

      .st3 {
        mask: url(#mask-3);
      }

      .st4 {
        mask: url(#mask-4);
      }

      .st5 {
        mask: url(#mask-5);
      }

      .st6 {
        mask: url(#mask-7);
      }

      .st7 {
        mask: url(#mask-6);
      }

      .st8 {
        mask: url(#mask-1);
      }

      .st9 {
        mask: url(#mask-9);
      }

      .st10 {
        mask: url(#mask-8);
      }

      .st11 {
        clip-path: url(#clippath-1);
      }

      .st12 {
        fill: #fff;
      }

      .st13 {
        fill: #e51b24;
      }

      .st14 {
        mask: url(#mask-10);
      }

      .st15 {
        mask: url(#mask-14);
      }

      .st16 {
        mask: url(#mask-11);
      }

      .st17 {
        mask: url(#mask-13);
      }

      .st18 {
        mask: url(#mask-12);
      }

      .st19 {
        mask: url(#mask-15);
      }

      .st20 {
        clip-path: url(#clippath);
      }
    </style>
    <clipPath id="clippath">
      <rect class="st0" x=".6" y=".6" width="109.1" height="30"/>
    </clipPath>
    <clipPath id="clippath-1">
      <rect class="st0" x="-6.4" y="-1.4" width="123" height="34"/>
    </clipPath>
    <mask id="mask" x="-6.4" y="-1.4" width="123" height="34" maskUnits="userSpaceOnUse">
      <g id="mask0_439_493">
        <path class="st12" d="M-6.4-1.4h123v34H-6.4V-1.4Z"/>
      </g>
    </mask>
    <mask id="mask-1" x="-6.4" y="-1.4" width="123" height="34" maskUnits="userSpaceOnUse">
      <g id="mask1_439_493">
        <path class="st12" d="M-6.4-1.4h123v34H-6.4V-1.4Z"/>
      </g>
    </mask>
    <mask id="mask-2" x="-6.4" y="-1.4" width="123" height="34" maskUnits="userSpaceOnUse">
      <g id="mask2_439_493">
        <path class="st12" d="M-6.4-1.4h123v34H-6.4V-1.4Z"/>
      </g>
    </mask>
    <mask id="mask-3" x="-6.4" y="-1.4" width="123" height="34" maskUnits="userSpaceOnUse">
      <g id="mask3_439_493">
        <path class="st12" d="M-6.4-1.4h123v34H-6.4V-1.4Z"/>
      </g>
    </mask>
    <mask id="mask-4" x="-6.4" y="-1.4" width="123" height="34" maskUnits="userSpaceOnUse">
      <g id="mask4_439_493">
        <path class="st12" d="M-6.4-1.4h123v34H-6.4V-1.4Z"/>
      </g>
    </mask>
    <mask id="mask-5" x="-6.4" y="-1.4" width="123" height="34" maskUnits="userSpaceOnUse">
      <g id="mask5_439_493">
        <path class="st12" d="M-6.4-1.4h123v34H-6.4V-1.4Z"/>
      </g>
    </mask>
    <mask id="mask-6" x="-6.4" y="-1.4" width="123" height="34" maskUnits="userSpaceOnUse">
      <g id="mask6_439_493">
        <path class="st12" d="M-6.4-1.4h123v34H-6.4V-1.4Z"/>
      </g>
    </mask>
    <mask id="mask-7" x="-6.4" y="-1.4" width="123" height="34" maskUnits="userSpaceOnUse">
      <g id="mask7_439_493">
        <path class="st12" d="M-6.4-1.4h123v34H-6.4V-1.4Z"/>
      </g>
    </mask>
    <mask id="mask-8" x="-6.4" y="-1.4" width="123" height="34" maskUnits="userSpaceOnUse">
      <g id="mask8_439_493">
        <path class="st12" d="M-6.4-1.4h123v34H-6.4V-1.4Z"/>
      </g>
    </mask>
    <mask id="mask-9" x="-6.4" y="-1.4" width="123" height="34" maskUnits="userSpaceOnUse">
      <g id="mask9_439_493">
        <path class="st12" d="M-6.4-1.4h123v34H-6.4V-1.4Z"/>
      </g>
    </mask>
    <mask id="mask-10" x="-6.4" y="-1.4" width="123" height="34" maskUnits="userSpaceOnUse">
      <g id="mask10_439_493">
        <path class="st12" d="M-6.4-1.4h123v34H-6.4V-1.4Z"/>
      </g>
    </mask>
    <mask id="mask-11" x="-6.4" y="-1.4" width="123" height="34" maskUnits="userSpaceOnUse">
      <g id="mask11_439_493">
        <path class="st12" d="M-6.4-1.4h123v34H-6.4V-1.4Z"/>
      </g>
    </mask>
    <mask id="mask-12" x="-6.4" y="-1.4" width="123" height="34" maskUnits="userSpaceOnUse">
      <g id="mask12_439_493">
        <path class="st12" d="M-6.4-1.4h123v34H-6.4V-1.4Z"/>
      </g>
    </mask>
    <mask id="mask-13" x="-6.4" y="-1.4" width="123" height="34" maskUnits="userSpaceOnUse">
      <g id="mask13_439_493">
        <path class="st12" d="M-6.4-1.4h123v34H-6.4V-1.4Z"/>
      </g>
    </mask>
    <mask id="mask-14" x="-6.4" y="-1.4" width="123" height="34" maskUnits="userSpaceOnUse">
      <g id="mask14_439_493">
        <path class="st12" d="M-6.4-1.4h123v34H-6.4V-1.4Z"/>
      </g>
    </mask>
    <mask id="mask-15" x="-6.4" y="-1.4" width="123" height="34" maskUnits="userSpaceOnUse">
      <g id="mask15_439_493">
        <path class="st12" d="M-6.4-1.4h123v34H-6.4V-1.4Z"/>
      </g>
    </mask>
  </defs>
  <g class="st20">
    <g class="st11">
      <g>
        <g class="st1">
          <path d="M24.8,12.6h.9c.8,0,1.1-.3,1.1-.8s-.3-.8-1-.8h-.9v1.6ZM24.8,14.4v3.1h-2.6v-8.5h3.5c1.3,0,2,.2,2.6.7.6.5.9,1.2.9,2,0,1.6-1.2,2.7-3,2.7h-1.4Z"/>
        </g>
        <g class="st8">
          <path d="M31.6,14h1.3l-.7-2.4-.7,2.4ZM33.9,17.5l-.5-1.7h-2.2l-.5,1.7h-2.1l2.5-8.5h2.7l2.6,8.5h-2.6Z"/>
        </g>
        <g class="st2">
          <path d="M40.1,11.1v6.4h-2.4v-6.4h-1.7v-2h5.8v2h-1.7Z"/>
        </g>
        <g class="st3">
          <path d="M46.8,11.1v6.4h-2.4v-6.4h-1.7v-2h5.8v2h-1.7Z"/>
        </g>
        <g class="st4">
          <path d="M55.6,15.5v2h-6.2v-8.5h6.2v2h-3.7v1.2h3v1.9h-3v1.4h3.7Z"/>
        </g>
        <g class="st5">
          <path d="M59,12.4h1.1c.7,0,1.1-.3,1.1-.8s-.4-.8-1-.8h-1.2v1.6ZM63.8,17.5h-2.8l-1.2-3.2h-.8v3.2h-2.6v-8.5h4.3c1.9,0,3,1,3,2.6s-.3,1.5-1,2c-.1,0-.3.2-.4.3l1.5,3.7Z"/>
        </g>
        <g class="st7">
          <path d="M64,15l2.3-.4c.3.7.7,1,1.5,1s1-.2,1-.5-.2-.5-1-.7c-1-.2-1.7-.4-2.2-.7-.7-.4-1.1-1.1-1.1-2,0-1.7,1.3-2.8,3.4-2.8s2.8.7,3.3,2.1l-2.1.6c-.2-.6-.6-.8-1.3-.8s-.8.2-.8.5.2.5.9.6c.5.1.9.2,1.2.3.4.1.8.3,1.2.4.7.4,1.2,1.2,1.2,2.1,0,1.7-1.5,2.9-3.7,2.9s-2.2-.3-2.8-1c-.5-.5-.6-.8-.9-1.5Z"/>
        </g>
        <g class="st6">
          <path d="M77.1,13.3v-.2c0-1.5-.4-2.2-1.2-2.2s-1.2.9-1.2,2.5.4,2.4,1.2,2.4.9-.3,1-.8c0-.4.2-.9.2-1.6ZM79.8,13.2c0,2.7-1.6,4.4-3.9,4.4s-3.9-1.7-3.9-4.3,1.6-4.4,4-4.4,3.9,1.7,3.9,4.3Z"/>
        </g>
        <g class="st10">
          <path d="M87.6,17.5h-2.1l-2.2-3.7-.2-.4-.3-.5c0-.2-.2-.3-.4-.8v.3c.2.4.2.7.2,1.1v4.1h-2.1v-8.5h2.4l1.9,3.1c.3.6.7,1.2.9,1.6-.1-.8-.2-1.5-.2-2.2v-2.5h2.1v8.5Z"/>
        </g>
        <g class="st9">
          <path d="M91.5,15.2h-3.1v-1.9h3.1v1.9Z"/>
        </g>
        <g class="st14">
          <path d="M99.2,9v5.6c0,1-.2,1.6-.7,2.1-.6.6-1.4.9-2.6.9s-2.1-.3-2.7-.8c-.5-.5-.7-1.1-.7-2v-5.7h2.6v5.4c0,.8.3,1.2,1.1,1.2s1.2-.4,1.2-1.2v-5.4h2Z"/>
        </g>
        <g class="st16">
          <path d="M104.1,11.1v6.4h-2.4v-6.4h-1.7v-2h5.8v2h-1.7Z"/>
        </g>
        <g class="st18">
          <path d="M109.1,17.5h-2.5v-8.5h2.5v8.5Z"/>
        </g>
        <g class="st17">
          <path class="st13" d="M1.8,19.1c1.4,3.5,4.8,5.9,8.7,5.9s7.3-2.5,8.7-5.9H1.8Z"/>
        </g>
        <g class="st15">
          <path class="st13" d="M7.5,17.5l2.1-8.8h0s1.7,0,1.7,0h0s2.1,8.8,2.1,8.8h6.2c.1-.6.2-1.2.2-1.9,0-5.2-4.2-9.4-9.4-9.4S1.1,10.4,1.1,15.6s0,1.3.2,1.9h6.2Z"/>
        </g>
        <g class="st19">
          <path class="st12" d="M19.7,17.5h-6.2l-2.1-8.8h0s-1.7,0-1.7,0h0l-2.1,8.8H1.2c.1.6.3,1.1.5,1.6h17.5c.2-.5.4-1.1.5-1.6h0Z"/>
        </g>
      </g>
    </g>
  </g>
</svg>