<?xml version="1.0" encoding="UTF-8"?>
<svg id="Layer_2" data-name="Layer 2" xmlns="http://www.w3.org/2000/svg" xmlns:xlink="http://www.w3.org/1999/xlink" viewBox="0 0 101.06 97">
  <defs>
    <style>
      .cls-1 {
        fill: url(#radial-gradient-2);
      }

      .cls-2 {
        fill: url(#radial-gradient);
      }

      .cls-3 {
        fill: none;
        stroke: url(#linear-gradient);
        stroke-miterlimit: 10;
        stroke-width: 8px;
      }
    </style>
    <radialGradient id="radial-gradient" cx="15.6" cy="9.18" fx="15.6" fy="9.18" r="131.86" gradientUnits="userSpaceOnUse">
      <stop offset="0" stop-color="#fff" stop-opacity="0"/>
      <stop offset="1" stop-color="#fff"/>
    </radialGradient>
    <radialGradient id="radial-gradient-2" cx="58.76" cy="47.57" fx="58.76" fy="47.57" r="41.26" xlink:href="#radial-gradient"/>
    <linearGradient id="linear-gradient" x1="40.11" y1="35.47" x2="101.06" y2="35.47" gradientUnits="userSpaceOnUse">
      <stop offset="0" stop-color="#fff"/>
      <stop offset="1" stop-color="#fff" stop-opacity="0"/>
    </linearGradient>
  </defs>
  <g id="Layer_1-2" data-name="Layer 1">
    <g>
      <path class="cls-2" d="M52.39,97c5.18-3.01,26.78-16.36,34.77-43.79,5.34-18.35,1.97-33.97,0-40.93-4.5-.45-10.03-1.4-16.12-3.37-7.92-2.56-14.16-5.98-18.65-8.91-4.49,2.93-10.73,6.35-18.65,8.91-6.1,1.97-11.62,2.92-16.12,3.37-1.97,6.96-5.34,22.58,0,40.93,7.99,27.43,29.59,40.78,34.77,43.79Z"/>
      <path class="cls-1" d="M0,75.57c0-1.28,13.21-5.3,13.58-6.49,4.56-14.85,13.97-23.43,29.22-23.43,16.53,0,29.93,13.4,29.93,29.93H0Z"/>
      <polyline class="cls-3" points="42.94 32.22 62.6 51.88 98.23 16.24"/>
    </g>
  </g>
</svg>