<?xml version="1.0" encoding="UTF-8"?>
<svg id="Layer_2" data-name="Layer 2" xmlns="http://www.w3.org/2000/svg" xmlns:xlink="http://www.w3.org/1999/xlink" viewBox="0 0 101.83 141.48">
  <defs>
    <style>
      .cls-1 {
        fill: url(#linear-gradient-8);
      }

      .cls-2 {
        fill: url(#linear-gradient-7);
      }

      .cls-3 {
        fill: url(#linear-gradient-9);
      }

      .cls-4 {
        fill: url(#radial-gradient);
      }

      .cls-5 {
        stroke: url(#linear-gradient-2);
      }

      .cls-5, .cls-6, .cls-7, .cls-8, .cls-9, .cls-10, .cls-11 {
        fill: none;
        stroke-miterlimit: 10;
        stroke-width: 3px;
      }

      .cls-6 {
        stroke: url(#linear-gradient-4);
      }

      .cls-7 {
        stroke: url(#linear-gradient-3);
      }

      .cls-8 {
        stroke: url(#linear-gradient-6);
      }

      .cls-9 {
        stroke: url(#linear-gradient-5);
      }

      .cls-12 {
        fill: url(#linear-gradient-10);
      }

      .cls-13 {
        fill: url(#linear-gradient-11);
      }

      .cls-14 {
        fill: url(#linear-gradient-12);
      }

      .cls-15 {
        fill: url(#linear-gradient-13);
      }

      .cls-10 {
        stroke: url(#linear-gradient);
      }

      .cls-11 {
        stroke: url(#linear-gradient-14);
      }
    </style>
    <radialGradient id="radial-gradient" cx="3.56" cy="145.11" fx="3.56" fy="145.11" r="164.63" gradientUnits="userSpaceOnUse">
      <stop offset="0" stop-color="#fff" stop-opacity="0"/>
      <stop offset="1" stop-color="#fff"/>
    </radialGradient>
    <linearGradient id="linear-gradient" x1="48.3" y1="98.68" x2="87.16" y2="98.68" gradientUnits="userSpaceOnUse">
      <stop offset="0" stop-color="#fff"/>
      <stop offset="1" stop-color="#fff" stop-opacity="0"/>
    </linearGradient>
    <linearGradient id="linear-gradient-2" y1="101.41" x2="76.29" y2="101.41" xlink:href="#linear-gradient"/>
    <linearGradient id="linear-gradient-3" y1="104.96" x2="66.76" y2="104.96" xlink:href="#linear-gradient"/>
    <linearGradient id="linear-gradient-4" x1="35.52" y1="101.95" x2="51.3" y2="101.95" gradientUnits="userSpaceOnUse">
      <stop offset="0" stop-color="#fff" stop-opacity="0"/>
      <stop offset="1" stop-color="#fff"/>
    </linearGradient>
    <linearGradient id="linear-gradient-5" x1="24.31" xlink:href="#linear-gradient-4"/>
    <linearGradient id="linear-gradient-6" x1="10.23" xlink:href="#linear-gradient-4"/>
    <linearGradient id="linear-gradient-7" x1="2.61" y1="43.09" x2="80.22" y2="89.98" gradientUnits="userSpaceOnUse">
      <stop offset="0" stop-color="#fff"/>
      <stop offset="1" stop-color="#fff" stop-opacity="0"/>
    </linearGradient>
    <linearGradient id="linear-gradient-8" x1="27.62" y1="-11.41" x2="101.26" y2="33.08" xlink:href="#linear-gradient-7"/>
    <linearGradient id="linear-gradient-9" x1="4.3" y1="32.5" x2="52.24" y2="61.51" xlink:href="#linear-gradient-7"/>
    <linearGradient id="linear-gradient-10" x1="50.66" y1="49.17" x2="29.04" y2="31.53" xlink:href="#linear-gradient-7"/>
    <linearGradient id="linear-gradient-11" x1="50.66" y1="26.05" x2="29.04" y2="8.42" xlink:href="#linear-gradient-7"/>
    <linearGradient id="linear-gradient-12" x1="14.53" y1="15.58" x2="62.48" y2="44.59" xlink:href="#linear-gradient-7"/>
    <linearGradient id="linear-gradient-13" x1="24.77" y1="-1.34" x2="72.71" y2="27.67" xlink:href="#linear-gradient-7"/>
    <linearGradient id="linear-gradient-14" x1="0" y1="72.79" x2="101.83" y2="72.79" gradientUnits="userSpaceOnUse">
      <stop offset="0" stop-color="#fff"/>
      <stop offset="1" stop-color="#fff"/>
    </linearGradient>
  </defs>
  <g id="Layer_1-2" data-name="Layer 1">
    <g>
      <path class="cls-4" d="M0,72.79h101.83v54.11c0,8.05-6.53,14.58-14.58,14.58H14.58c-8.05,0-14.58-6.53-14.58-14.58v-54.11h0Z"/>
      <polyline class="cls-10" points="49.8 72.79 49.8 82.75 85.66 82.75 85.66 124.57"/>
      <polyline class="cls-5" points="49.8 72.79 49.8 96.18 74.79 96.18 74.79 130.03"/>
      <polyline class="cls-7" points="49.8 83.99 49.8 108.44 65.26 108.44 65.26 125.93"/>
      <polyline class="cls-6" points="49.8 72.79 49.8 117.24 37.02 117.24 37.02 131.12"/>
      <polyline class="cls-9" points="49.8 72.79 49.8 103.09 25.81 103.09 25.81 131.12"/>
      <polyline class="cls-8" points="49.8 72.79 49.8 90.19 11.73 90.19 11.73 131.12"/>
      <path class="cls-2" d="M43.41,60.03c5.15,4.6,10.3,9.2,15.45,13.8h-18.13c.1-2.15.36-4.62.91-7.34.49-2.44,1.12-4.6,1.76-6.46Z"/>
      <path class="cls-1" d="M55.51,12.91c-4.92-4.3-9.85-8.6-14.78-12.91h18.13c.03,1.84-.14,4.4-.97,7.3-.67,2.33-1.57,4.21-2.38,5.61Z"/>
      <path class="cls-3" d="M58.86,73.84l-18.13-15.97c.29-1.39.52-3.05.58-4.91.08-2.65-.21-4.93-.58-6.72,6.04,5.32,12.08,10.65,18.13,15.97-.31,1.63-.55,3.64-.55,5.94,0,2.2.25,4.12.55,5.69Z"/>
      <path class="cls-12" d="M56.4,60.03c-5.22-4.57-10.44-9.15-15.67-13.72-.07-1.12-.04-2.88.58-4.91.59-1.96,1.49-3.39,2.15-4.29,5.13,4.51,10.27,9.02,15.4,13.53.18,1.18.35,3.41-.55,5.94-.54,1.53-1.3,2.68-1.91,3.45Z"/>
      <path class="cls-13" d="M56.4,36.92c-5.22-4.57-10.44-9.15-15.67-13.72-.07-1.12-.04-2.88.58-4.91.59-1.96,1.49-3.39,2.15-4.29,5.13,4.51,10.27,9.02,15.4,13.53.18,1.18.35,3.41-.55,5.94-.54,1.53-1.3,2.68-1.91,3.45Z"/>
      <path class="cls-14" d="M58.86,50.72l-18.13-15.97c.29-1.39.52-3.05.58-4.91.08-2.65-.21-4.93-.58-6.72,6.04,5.32,12.08,10.65,18.13,15.97-.31,1.63-.55,3.64-.55,5.94,0,2.2.25,4.12.55,5.69Z"/>
      <path class="cls-15" d="M58.86,27.61l-18.13-15.97c.29-1.39.52-3.05.58-4.91.08-2.65-.21-4.93-.58-6.72,6.04,5.32,12.08,10.65,18.13,15.97-.31,1.63-.55,3.64-.55,5.94,0,2.2.25,4.12.55,5.69Z"/>
      <line class="cls-11" y1="72.79" x2="101.83" y2="72.79"/>
    </g>
  </g>
</svg>