<?xml version="1.0" encoding="UTF-8"?>
<svg id="Layer_2" data-name="Layer 2" xmlns="http://www.w3.org/2000/svg" xmlns:xlink="http://www.w3.org/1999/xlink" viewBox="0 0 129.03 138.79">
  <defs>
    <style>
      .cls-1 {
        fill: url(#radial-gradient-2);
      }

      .cls-2 {
        fill: url(#linear-gradient-8);
      }

      .cls-3 {
        fill: url(#linear-gradient-7);
      }

      .cls-4 {
        fill: url(#linear-gradient-5);
      }

      .cls-5 {
        fill: url(#linear-gradient-6);
      }

      .cls-6 {
        fill: url(#linear-gradient-9);
      }

      .cls-7 {
        fill: url(#linear-gradient-4);
      }

      .cls-8 {
        fill: url(#linear-gradient-3);
      }

      .cls-9 {
        fill: url(#linear-gradient-2);
      }

      .cls-10 {
        fill: url(#radial-gradient);
      }

      .cls-11 {
        fill: url(#linear-gradient);
      }

      .cls-12 {
        fill: url(#linear-gradient-10);
      }

      .cls-13 {
        fill: url(#linear-gradient-11);
      }

      .cls-14 {
        fill: url(#linear-gradient-12);
      }

      .cls-15 {
        fill: url(#linear-gradient-13);
      }

      .cls-16 {
        fill: url(#linear-gradient-14);
      }
    </style>
    <radialGradient id="radial-gradient" cx="126.61" cy="44.38" fx="126.61" fy="44.38" r="42.11" gradientTransform="translate(-122.42) scale(1.48 1)" gradientUnits="userSpaceOnUse">
      <stop offset="0" stop-color="#fff"/>
      <stop offset="1" stop-color="#fff" stop-opacity=".06"/>
    </radialGradient>
    <linearGradient id="linear-gradient" x1="60.41" y1="44.25" x2="135.27" y2="46.67" gradientUnits="userSpaceOnUse">
      <stop offset="0" stop-color="#fff"/>
      <stop offset="1" stop-color="#fff" stop-opacity="0"/>
    </linearGradient>
    <linearGradient id="linear-gradient-2" x1="19.49" y1="-13.11" x2="164.12" y2="74.27" xlink:href="#linear-gradient"/>
    <linearGradient id="linear-gradient-3" x1="35.59" y1="-9.63" x2="128.5" y2="46.5" xlink:href="#linear-gradient"/>
    <linearGradient id="linear-gradient-4" x1="-.27" y1="-35.76" x2="207.83" y2="89.96" xlink:href="#linear-gradient"/>
    <linearGradient id="linear-gradient-5" x1="529.9" y1="-87.51" x2="674.54" y2="-.13" gradientTransform="translate(-470.42 104.69)" xlink:href="#linear-gradient"/>
    <linearGradient id="linear-gradient-6" x1="529.9" y1="-7.51" x2="674.54" y2="79.86" gradientTransform="translate(-550.41 24.69)" xlink:href="#linear-gradient"/>
    <linearGradient id="linear-gradient-7" x1="61.01" y1="25.74" x2="135.87" y2="28.16" xlink:href="#linear-gradient"/>
    <radialGradient id="radial-gradient-2" cy="119.75" fy="119.75" xlink:href="#radial-gradient"/>
    <linearGradient id="linear-gradient-8" x1="57.97" y1="119.54" x2="132.83" y2="121.96" xlink:href="#linear-gradient"/>
    <linearGradient id="linear-gradient-9" x1="19.49" y1="62.26" x2="164.12" y2="149.64" xlink:href="#linear-gradient"/>
    <linearGradient id="linear-gradient-10" x1="35.59" y1="65.74" x2="128.5" y2="121.86" xlink:href="#linear-gradient"/>
    <linearGradient id="linear-gradient-11" x1="-.27" y1="39.61" x2="207.83" y2="165.33" xlink:href="#linear-gradient"/>
    <linearGradient id="linear-gradient-12" x1="605.27" y1="-87.51" x2="749.9" y2="-.13" gradientTransform="translate(-545.79 180.05)" xlink:href="#linear-gradient"/>
    <linearGradient id="linear-gradient-13" x1="605.27" y1="-7.51" x2="749.9" y2="79.86" gradientTransform="translate(-625.78 100.06)" xlink:href="#linear-gradient"/>
    <linearGradient id="linear-gradient-14" x1="58.57" y1="101.02" x2="133.43" y2="103.45" xlink:href="#linear-gradient"/>
  </defs>
  <g id="Layer_1-2" data-name="Layer 1">
    <g>
      <rect class="cls-10" y="32.53" width="129.03" height="23.7"/>
      <circle class="cls-11" cx="64.52" cy="44.38" r="19.05"/>
      <rect class="cls-9" x="45.47" y="8.93" width="38.09" height="10.33"/>
      <rect class="cls-8" x="50.93" y="6.76" width="27.16" height="2.17"/>
      <rect class="cls-7" x="33.19" y="0" width="62.65" height="6.76" rx="3.38" ry="3.38"/>
      <rect class="cls-4" x="85.47" y="39.22" width="38.09" height="10.33" transform="translate(148.89 -60.13) rotate(90)"/>
      <rect class="cls-5" x="5.47" y="39.22" width="38.09" height="10.33" transform="translate(68.9 19.86) rotate(90)"/>
      <rect class="cls-3" x="51.74" y="19.17" width="25.56" height="13.36"/>
      <rect class="cls-1" y="107.9" width="129.03" height="23.7"/>
      <circle class="cls-2" cx="64.52" cy="119.75" r="19.05"/>
      <rect class="cls-6" x="45.47" y="84.3" width="38.09" height="10.33"/>
      <rect class="cls-12" x="50.93" y="82.12" width="27.16" height="2.17"/>
      <rect class="cls-13" x="33.19" y="75.37" width="62.65" height="6.76" rx="3.38" ry="3.38"/>
      <rect class="cls-14" x="85.47" y="114.58" width="38.09" height="10.33" transform="translate(224.26 15.24) rotate(90)"/>
      <rect class="cls-15" x="5.47" y="114.58" width="38.09" height="10.33" transform="translate(144.27 95.23) rotate(90)"/>
      <rect class="cls-16" x="51.74" y="94.54" width="25.56" height="13.36"/>
    </g>
  </g>
</svg>