<?xml version="1.0" encoding="UTF-8"?>
<svg id="Layer_2" data-name="Layer 2" xmlns="http://www.w3.org/2000/svg" xmlns:xlink="http://www.w3.org/1999/xlink" viewBox="0 0 119.16 143.18">
  <defs>
    <style>
      .cls-1 {
        fill: url(#linear-gradient-3);
      }

      .cls-2 {
        fill: url(#linear-gradient-2);
      }

      .cls-3 {
        fill: url(#radial-gradient);
      }

      .cls-4 {
        fill: url(#linear-gradient);
      }
    </style>
    <linearGradient id="linear-gradient" x1="52.38" y1="76.09" x2="112.63" y2="-62.13" gradientUnits="userSpaceOnUse">
      <stop offset="0" stop-color="#fff"/>
      <stop offset="1" stop-color="#fff" stop-opacity="0"/>
    </linearGradient>
    <linearGradient id="linear-gradient-2" x1="43.39" y1="135.09" x2="75.77" y2="135.09" xlink:href="#linear-gradient"/>
    <linearGradient id="linear-gradient-3" x1="59.58" y1="26.69" x2="59.58" y2="73.86" xlink:href="#linear-gradient"/>
    <radialGradient id="radial-gradient" cx="77.14" cy="30.27" fx="77.14" fy="30.27" r="87.99" gradientUnits="userSpaceOnUse">
      <stop offset="0" stop-color="#fff" stop-opacity="0"/>
      <stop offset="1" stop-color="#fff"/>
    </radialGradient>
  </defs>
  <g id="Layer_1-2" data-name="Layer 1">
    <g>
      <path class="cls-4" d="M67.82,0h0c3.55,11.9,17.13,17.53,28.05,11.62h0c6.05,6.05,5.61,5.61,11.66,11.66h0c-5.9,10.92-.28,24.51,11.62,28.05h0c0,8.55,0,7.94,0,16.49h0c-11.9,3.55-17.53,17.13-11.62,28.05h0c-6.05,6.05-5.61,5.61-11.66,11.66h0c-10.92-5.9-24.51-.28-28.05,11.62h0c-8.55,0-7.94,0-16.49,0h0c-3.55-11.9-17.13-17.53-28.05-11.62h0c-6.05-6.05-5.61-5.61-11.66-11.66h0C17.53,84.96,11.9,71.37,0,67.82H0c0-8.55,0-7.94,0-16.49h0c11.9-3.55,17.53-17.13,11.62-28.05h0c6.05-6.05,5.61-5.61,11.66-11.66h0C34.2,17.53,47.79,11.9,51.33,0h0C59.89,0,59.27,0,67.82,0ZM59.58,16.68c-23.69,0-42.9,19.2-42.9,42.9s19.2,42.9,42.9,42.9,42.9-19.2,42.9-42.9-19.2-42.9-42.9-42.9Z"/>
      <path class="cls-2" d="M43.39,127h32.38v7.82c0,4.62-3.75,8.37-8.37,8.37h-15.65c-4.62,0-8.37-3.75-8.37-8.37v-7.82h0Z"/>
      <polygon class="cls-1" points="59.58 29.55 54.42 59.09 59.58 71.18 64.74 59.09 59.58 29.55"/>
      <path class="cls-3" d="M91.91,59.22c0-18.28-15.16-33.01-33.6-32.31-16.95.64-30.67,14.59-31.06,31.55-.18,7.78,2.39,14.95,6.81,20.61,6.2,7.95,9.33,17.86,9.33,27.94v12.15h32.38v-12.29c0-10.25,3.57-20.09,9.71-28.29,4.04-5.39,6.44-12.09,6.44-19.35Z"/>
    </g>
  </g>
</svg>