<?xml version="1.0" encoding="UTF-8"?>
<svg id="Layer_2" data-name="Layer 2" xmlns="http://www.w3.org/2000/svg" xmlns:xlink="http://www.w3.org/1999/xlink" viewBox="0 0 101.77 97">
  <defs>
    <style>
      .cls-1 {
        fill: url(#radial-gradient);
      }

      .cls-2 {
        fill: url(#linear-gradient);
      }

      .cls-3 {
        fill: none;
        stroke: url(#linear-gradient-2);
        stroke-miterlimit: 10;
        stroke-width: 10px;
      }
    </style>
    <linearGradient id="linear-gradient" x1="14.74" y1="48.5" x2="90.04" y2="48.5" gradientUnits="userSpaceOnUse">
      <stop offset="0" stop-color="#2145ff"/>
      <stop offset="1" stop-color="#2145ff" stop-opacity="0"/>
    </linearGradient>
    <radialGradient id="radial-gradient" cx="58.76" cy="47.57" fx="58.76" fy="47.57" r="41.26" gradientUnits="userSpaceOnUse">
      <stop offset="0" stop-color="#fdcc55" stop-opacity="0"/>
      <stop offset="1" stop-color="#fdcc55"/>
    </radialGradient>
    <linearGradient id="linear-gradient-2" x1="39.41" y1="35.83" x2="101.77" y2="35.83" gradientUnits="userSpaceOnUse">
      <stop offset="0" stop-color="#ffcb4f"/>
      <stop offset="1" stop-color="#ffcb4f" stop-opacity="0"/>
    </linearGradient>
  </defs>
  <g id="Layer_1-2" data-name="Layer 1">
    <g>
      <path class="cls-2" d="M52.39,97c5.18-3.01,26.78-16.36,34.77-43.79,5.34-18.35,1.97-33.97,0-40.93-4.5-.45-10.03-1.4-16.12-3.37-7.92-2.56-14.16-5.98-18.65-8.91-4.49,2.93-10.73,6.35-18.65,8.91-6.1,1.97-11.62,2.92-16.12,3.37-1.97,6.96-5.34,22.58,0,40.93,7.99,27.43,29.59,40.78,34.77,43.79Z"/>
      <path class="cls-1" d="M0,75.57c0-1.28,13.21-5.3,13.58-6.49,4.56-14.85,13.97-23.43,29.22-23.43,16.53,0,29.93,13.4,29.93,29.93H0Z"/>
      <polyline class="cls-3" points="42.94 32.22 62.6 51.88 98.23 16.24"/>
    </g>
  </g>
</svg>