<svg xmlns="http://www.w3.org/2000/svg" id="Layer_1" data-name="Layer 1" viewBox="0 0 114.85 114.85" width="114.85" height="114.85"><metadata><rdf:RDF xmlns:rdf="http://www.w3.org/1999/02/22-rdf-syntax-ns#" xmlns:dc="http://purl.org/dc/elements/1.1/"><rdf:Description><dc:creator>RealFaviconGenerator</dc:creator><dc:source>https://realfavicongenerator.net</dc:source></rdf:Description></rdf:RDF></metadata><defs>
    <style>
      .cls-1 {
        fill: #435daa;
      }
    </style>
  </defs><path class="cls-1" d="M84.68,27.13l13.69,13.69c.76.76,1.77,0,1.77-.76l-.51-20.79c0-.25,0-.51-.25-.76l-13.69-13.69c-.76-.76-1.77,0-1.77.76l.51,20.79c0,.25,0,.51.25.76"></path><path class="cls-1" d="M18.25,15.47l-13.69,13.69c-.76.76,0,1.77.76,1.77l21.04-.51c.25,0,.51,0,.76-.25l13.69-13.69c.76-.76,0-1.77-.76-1.77l-21.04.51c-.25,0-.51,0-.76.25"></path><path class="cls-1" d="M39.3,1.77l15.21,14.45s.51.25.76.25h19.52c1.01,0,1.52-1.27.76-1.77L60.34.25c-.25-.25-.51-.25-.76-.25h-19.52c-1.01,0-1.27,1.27-.76,1.77"></path><path class="cls-1" d="M0,55.27v19.52c0,1.01,1.27,1.52,1.77.76l14.45-15.21s.25-.51.25-.76v-19.52c0-1.01-1.27-1.52-1.77-.76L.25,54.51s-.25.51-.25.76"></path><path class="cls-1" d="M15.21,96.6l13.69,13.69c.76.76,1.77,0,1.77-.76l-.51-20.79c0-.25,0-.51-.25-.76l-13.69-13.69c-.76-.76-1.77,0-1.77.76l.51,20.79c0,.25,0,.51.25.76"></path><path class="cls-1" d="M39.3,100.15l15.21,14.45s.51.25.76.25h19.52c1.01,0,1.52-1.27.76-1.77l-15.21-14.45s-.51-.25-.76-.25h-19.52c-1.01,0-1.52,1.27-.76,1.77"></path><path class="cls-1" d="M87.98,84.94l-13.69,13.69c-.76.76,0,1.77.76,1.77l21.04-.51c.25,0,.51,0,.76-.25l13.69-13.69c.76-.76,0-1.77-.76-1.77l-20.79.51c-.25,0-.51,0-.76.25"></path><path class="cls-1" d="M98.37,55.27v19.52c0,1.01,1.27,1.52,1.77.76l14.45-15.21s.25-.51.25-.76v-19.52c0-1.01-1.27-1.52-1.77-.76l-14.45,15.21s-.25.51-.25.76"></path></svg>