<?xml version="1.0" encoding="UTF-8"?>
<svg id="Layer_2" xmlns="http://www.w3.org/2000/svg" version="1.1" viewBox="0 0 261.5 45.3">
  <!-- Generator: Adobe Illustrator 30.4.0, SVG Export Plug-In . SVG Version: 2.1.4 Build 226)  -->
  <defs>
    <style>
      .st0 {
        fill: #2145ff;
      }

      .st1 {
        fill: #000c3b;
      }
    </style>
  </defs>
  <g id="Layer_1-2">
    <g>
      <path class="st1" d="M78.2,18.2h-12.3v15.4c0,1.8,1,2.9,2.9,2.9h9.4v3.8h-10.1c-4,0-6.1-2.2-6.1-6.1v-16h-4.7v-3.8h4.7V5.1h3.9v9.3h12.3v3.8h0Z"/>
      <path class="st1" d="M82.7,14.4h3.9v14.3c0,5,3.3,8.5,8.1,8.5s8.1-3.5,8.1-8.5v-14.3h3.9v14.4c0,7.4-4.9,12.2-12,12.2s-12-4.8-12-12.2c0,0,0-14.4,0-14.4Z"/>
      <path class="st1" d="M130.9,14.4v3.9h-4.7c-5.3,0-8.9,3.4-8.9,9.6v12.3h-3.9V14.4h3.8v5.1h.2c1.5-3.4,4.6-5.1,9-5.1,0,0,4.6,0,4.6,0Z"/>
      <path class="st1" d="M159.8,25.2v15.1h-3.9v-14.4c0-4.9-2.9-8.4-7.7-8.4s-8.9,4.1-8.9,9.8v12.9h-3.9V14.4h3.9v4.5h.1c2-3.1,5.5-5.2,9.6-5.2,6.5,0,10.9,4.5,10.9,11.5"/>
    </g>
    <polygon class="st1" points="197.2 14.4 201.4 14.4 192.6 40.3 188.6 40.3 182.1 20 175.7 40.3 171.7 40.3 162.8 14.4 167.1 14.4 173.8 34.7 180.2 14.4 184.1 14.4 190.5 34.8 197.2 14.4"/>
    <g>
      <path class="st1" d="M229.7,28.7h-22.4c.3,4.7,4.1,8.4,9.4,8.4s7.1-1.9,8.4-4.9h4.1c-1.7,5.3-6.6,8.7-12.6,8.7s-13.4-6.2-13.4-13.6,5.5-13.6,13.4-13.6,13.6,6.4,13.2,15M207.4,25.2h18.1c-.7-4.5-4.2-7.7-9.1-7.7s-8.4,3.3-9,7.7"/>
      <path class="st1" d="M234.8,2.5h3.9v31.1c0,1.8,1.1,2.8,2.9,2.8h4.4v3.8h-4.8c-4.1,0-6.4-2.3-6.4-6.2V2.5h0Z"/>
      <path class="st1" d="M250.3,2.5h3.9v31.1c0,1.8,1.1,2.8,2.9,2.8h4.4v3.8h-4.8c-4.1,0-6.4-2.3-6.4-6.2V2.5h0Z"/>
      <path class="st0" d="M33.4,10.7l5.4,5.4c.3.3.7,0,.7-.3l-.2-8.2c0-.1,0-.2-.1-.3l-5.4-5.4c-.3-.3-.7,0-.7.3l.2,8.2c0,.1,0,.2.1.3"/>
      <path class="st0" d="M7.2,6.1L1.8,11.5c-.3.3,0,.7.3.7l8.3-.2c.1,0,.2,0,.3-.1l5.4-5.4c.3-.3,0-.7-.3-.7l-8.3.2c-.1,0-.2,0-.3.1"/>
      <path class="st0" d="M15.5.7l6,5.7c0,0,.2.1.3.1h7.7c.4,0,.6-.5.3-.7L23.8.1C23.7,0,23.6,0,23.5,0h-7.7C15.4,0,15.3.5,15.5.7"/>
      <path class="st0" d="M0,21.8v7.7c0,.4.5.6.7.3l5.7-6c0,0,.1-.2.1-.3v-7.7c0-.4-.5-.6-.7-.3L.1,21.5c0,0-.1.2-.1.3"/>
      <path class="st0" d="M6,38.1l5.4,5.4c.3.3.7,0,.7-.3l-.2-8.2c0-.1,0-.2-.1-.3l-5.4-5.4c-.3-.3-.7,0-.7.3l.2,8.2c0,.1,0,.2.1.3"/>
      <path class="st0" d="M15.5,39.5l6,5.7c0,0,.2.1.3.1h7.7c.4,0,.6-.5.3-.7l-6-5.7c0,0-.2-.1-.3-.1h-7.7c-.4,0-.6.5-.3.7"/>
      <path class="st0" d="M34.7,33.5l-5.4,5.4c-.3.3,0,.7.3.7l8.3-.2c.1,0,.2,0,.3-.1l5.4-5.4c.3-.3,0-.7-.3-.7l-8.2.2c-.1,0-.2,0-.3.1"/>
      <path class="st0" d="M38.8,21.8v7.7c0,.4.5.6.7.3l5.7-6c0,0,.1-.2.1-.3v-7.7c0-.4-.5-.6-.7-.3l-5.7,6c0,0-.1.2-.1.3"/>
    </g>
  </g>
</svg>