<?xml version="1.0" encoding="UTF-8"?>
<svg id="Layer_2" data-name="Layer 2" xmlns="http://www.w3.org/2000/svg" viewBox="0 0 261.48 45.35">
  <defs>
    <style>
      .cls-1 {
        fill: #fff;
      }
    </style>
  </defs>
  <g id="Layer_1-2" data-name="Layer 1">
    <g>
      <path class="cls-1" d="M78.19,18.17h-12.34v15.38c0,1.84,1,2.89,2.89,2.89h9.45v3.83h-10.13c-3.99,0-6.14-2.15-6.14-6.09v-16.01h-4.72v-3.78h4.72V5.1h3.94v9.29h12.34v3.78Z"/>
      <path class="cls-1" d="M82.7,14.39h3.94v14.33c0,4.99,3.31,8.5,8.08,8.5s8.08-3.52,8.08-8.5v-14.33h3.94v14.43c0,7.35-4.88,12.18-12.02,12.18s-12.02-4.83-12.02-12.18v-14.43Z"/>
      <path class="cls-1" d="M130.89,14.39v3.94h-4.73c-5.35,0-8.87,3.41-8.87,9.61v12.34h-3.94V14.39h3.83v5.14h.16c1.47-3.41,4.62-5.14,8.98-5.14h4.57Z"/>
      <path class="cls-1" d="M159.76,25.2v15.07h-3.94v-14.38c0-4.93-2.94-8.35-7.66-8.35-5.2,0-8.92,4.15-8.92,9.82v12.91h-3.94V14.39h3.89v4.51h.1c2-3.15,5.46-5.2,9.61-5.2,6.46,0,10.87,4.46,10.87,11.5"/>
    </g>
    <polygon class="cls-1" points="197.24 14.39 201.44 14.39 192.57 40.27 188.63 40.27 182.12 19.95 175.72 40.27 171.73 40.27 162.8 14.39 167.05 14.39 173.77 34.65 180.18 14.39 184.11 14.39 190.52 34.76 197.24 14.39"/>
    <g>
      <path class="cls-1" d="M229.73,28.72h-22.41c.32,4.72,4.15,8.45,9.45,8.45,3.88,0,7.09-1.94,8.4-4.93h4.1c-1.73,5.35-6.61,8.71-12.65,8.71-8.19,0-13.44-6.19-13.44-13.6s5.46-13.65,13.39-13.65,13.65,6.4,13.17,15.01M207.42,25.2h18.11c-.68-4.51-4.2-7.72-9.08-7.72s-8.45,3.31-9.03,7.72"/>
      <path class="cls-1" d="M234.82,2.47h3.94v31.13c0,1.79,1.05,2.84,2.89,2.84h4.36v3.83h-4.83c-4.15,0-6.35-2.26-6.35-6.25V2.47Z"/>
      <path class="cls-1" d="M250.3,2.47h3.94v31.13c0,1.79,1.05,2.84,2.89,2.84h4.36v3.83h-4.83c-4.15,0-6.35-2.26-6.35-6.25V2.47Z"/>
      <path class="cls-1" d="M33.43,10.67l5.44,5.44c.27.27.73.07.72-.31l-.19-8.25c0-.11-.05-.21-.12-.29l-5.44-5.44c-.27-.27-.73-.07-.72.31l.19,8.25c0,.11.05.21.12.29"/>
      <path class="cls-1" d="M7.23,6.05L1.79,11.49c-.27.27-.07.73.31.72l8.28-.19c.11,0,.21-.05.29-.12l5.44-5.44c.27-.27.07-.73-.31-.72l-8.28.19c-.11,0-.21.05-.29.12"/>
      <path class="cls-1" d="M15.53.73l5.99,5.71c.08.08.18.12.29.12h7.68c.38,0,.57-.47.29-.73L23.8.12c-.08-.08-.18-.12-.29-.12h-7.68c-.38,0-.57.47-.29.73"/>
      <path class="cls-1" d="M0,21.82v7.68c0,.38.47.57.73.29l5.71-5.96c.08-.08.12-.18.12-.29v-7.68c0-.38-.46-.57-.73-.29L.12,21.52c-.08.08-.12.18-.12.29"/>
      <path class="cls-1" d="M6.02,38.09l5.44,5.44c.27.27.73.07.72-.31l-.19-8.25c0-.11-.05-.21-.12-.29l-5.41-5.44c-.27-.27-.73-.08-.72.31l.17,8.25c0,.11.05.21.12.29"/>
      <path class="cls-1" d="M15.53,39.52l5.99,5.71c.08.08.18.12.29.12h7.68c.38,0,.57-.47.29-.73l-5.99-5.71c-.08-.08-.18-.12-.29-.12h-7.68c-.38,0-.57.47-.29.73"/>
      <path class="cls-1" d="M34.65,33.46l-5.44,5.44c-.27.27-.07.73.31.72l8.28-.19c.11,0,.21-.05.29-.12l5.41-5.44c.27-.27.07-.73-.31-.72l-8.25.19c-.11,0-.21.05-.29.12"/>
      <path class="cls-1" d="M38.76,21.82v7.68c0,.38.47.57.73.29l5.71-5.96c.07-.08.12-.18.12-.29v-7.68c0-.38-.47-.57-.73-.29l-5.71,5.96c-.07.08-.12.18-.12.29"/>
    </g>
  </g>
</svg>